<svg width="24.000000" height="24.000000" viewBox="0 0 24 24" fill="none" xmlns="http://www.w3.org/2000/svg" xmlns:xlink="http://www.w3.org/1999/xlink">
	<desc>
			Created with Pixso.
	</desc>
	<defs>
		<clipPath id="clip802_1143">
			<rect id="User / User_Add" rx="0.000000" width="23.000000" height="23.000000" transform="translate(0.500000 0.500000)" fill="white" fill-opacity="0"/>
		</clipPath>
	</defs>
	<g clip-path="url(#clip802_1143)">
		<path id="Vector" d="M15 19C15 16.79 12.31 15 9 15C5.68 15 3 16.79 3 19M19 16L19 13L19 10M16 13L19 13M19 13L22 13M5 8C5 5.79 6.79 4 9 4C11.2 4 13 5.79 13 8C13 10.2 11.2 12 9 12C6.79 12 5 10.2 5 8Z" stroke="#202224" stroke-opacity="1.000000" stroke-width="1.500000" stroke-linejoin="round" stroke-linecap="round"/>
	</g>
</svg>
