<svg width="24.000000" height="24.000000" viewBox="0 0 24 24" fill="none" xmlns="http://www.w3.org/2000/svg" xmlns:xlink="http://www.w3.org/1999/xlink">
	<desc>
			Created with Pixso.
	</desc>
	<defs>
		<clipPath id="clip802_1139">
			<rect id="User / User_Square" rx="0.000000" width="23.000000" height="23.000000" transform="translate(0.500000 0.500000)" fill="white" fill-opacity="0"/>
		</clipPath>
	</defs>
	<g clip-path="url(#clip802_1139)">
		<path id="Vector" d="M9 10C9 8.34 10.34 7 12 7C13.65 7 15 8.34 15 10C15 11.65 13.65 13 12 13C10.34 13 9 11.65 9 10ZM3 6.2C3 5.08 3 4.51 3.21 4.09C3.4 3.71 3.71 3.4 4.09 3.21C4.51 3 5.08 3 6.2 3L17.8 3C18.92 3 19.47 3 19.9 3.21C20.28 3.4 20.59 3.71 20.78 4.09C21 4.51 21 5.07 21 6.19L21 17.8C21 18.92 21 19.48 20.78 19.9C20.59 20.28 20.28 20.59 19.9 20.78C19.48 21 18.92 21 17.8 21L17 21L7 21L6.19 21C5.07 21 4.51 21 4.09 20.78C3.71 20.59 3.4 20.28 3.21 19.9C3 19.47 3 18.92 3 17.8L3 6.2ZM17 21C17 18.23 14.76 16 12 16C9.23 16 7 18.23 7 21" stroke="#202224" stroke-opacity="1.000000" stroke-width="1.500000" stroke-linejoin="round"/>
	</g>
</svg>
