<svg width="17.500000" height="17.500000" viewBox="0 0 17.5 17.5" fill="none" xmlns="http://www.w3.org/2000/svg" xmlns:xlink="http://www.w3.org/1999/xlink">
	<desc>
			Created with Pixso.
	</desc>
	<defs/>
	<path id="Vector" d="M8.75 11.75L11.75 8.75L8.75 5.75M11.75 8.75L0.75 8.75M0.75 3.99L0.75 3.95C0.75 2.83 0.75 2.26 0.96 1.84C1.15 1.46 1.46 1.15 1.84 0.96C2.26 0.75 2.83 0.75 3.95 0.75L13.55 0.75C14.67 0.75 15.22 0.75 15.65 0.96C16.03 1.15 16.34 1.46 16.53 1.84C16.75 2.26 16.75 2.82 16.75 3.94L16.75 13.55C16.75 14.67 16.75 15.23 16.53 15.65C16.34 16.03 16.03 16.34 15.65 16.53C15.23 16.75 14.67 16.75 13.55 16.75L3.94 16.75C2.82 16.75 2.26 16.75 1.84 16.53C1.46 16.34 1.15 16.03 0.96 15.65C0.75 15.22 0.75 14.67 0.75 13.55L0.75 13.5" stroke="#202224" stroke-opacity="1.000000" stroke-width="1.500000" stroke-linejoin="round" stroke-linecap="round"/>
</svg>
