<svg width="212.957367" height="42.543701" viewBox="0 0 212.957 42.5437" fill="none" xmlns="http://www.w3.org/2000/svg" xmlns:xlink="http://www.w3.org/1999/xlink">
	<desc>
			Created with Pixso.
	</desc>
	<defs/>
	<path id="Panama Club" d="M163.71 34.86Q165.33 35.76 167.61 35.76Q168.67 35.76 169.67 35.5Q169.98 35.42 170.29 35.31Q171.57 34.86 172.39 34.12L171.43 31.66Q170.53 32.36 169.62 32.69Q169.44 32.76 169.26 32.81Q168.52 33.02 167.71 33.02Q166 33.02 165 32.18Q164.82 32.02 164.66 31.84Q163.64 30.66 163.64 28.48Q163.64 26.3 164.66 25.13Q164.81 24.95 164.99 24.8Q165.99 23.96 167.71 23.96Q168.49 23.96 169.22 24.16Q169.42 24.22 169.62 24.29Q170.53 24.62 171.43 25.32L172.39 22.86Q171.57 22.1 170.29 21.66Q170.02 21.57 169.75 21.49Q168.72 21.22 167.61 21.22Q165.33 21.22 163.71 22.12Q162.89 22.58 162.26 23.23Q161.65 23.85 161.22 24.65Q160.35 26.28 160.35 28.48Q160.35 30.7 161.22 32.33Q161.64 33.11 162.23 33.72Q162.87 34.39 163.71 34.86ZM76.37 21.44L76.37 35.54L79.47 35.54L79.47 30.46L82.81 30.46Q85.12 30.46 86.39 29.32Q86.42 29.29 86.45 29.26Q86.73 29 86.94 28.7Q87.73 27.6 87.73 25.94Q87.73 24.27 86.94 23.18Q86.72 22.88 86.45 22.63Q86.43 22.61 86.41 22.59Q85.14 21.44 82.81 21.44L76.37 21.44ZM100.35 21.44L100.35 35.54L103.23 35.54L103.23 26.54L110.3 35.54L112.57 35.54L112.57 21.44L109.69 21.44L109.69 30.42L102.65 21.44L100.35 21.44ZM126.59 21.44L126.59 35.54L129.39 35.54L129.39 27L133.01 33.42L134.75 33.42L138.39 26.94L138.39 35.54L141.21 35.54L141.21 21.44L138.67 21.44L133.93 30.1L129.17 21.44L126.59 21.44ZM174.43 21.44L174.43 35.54L184.05 35.54L184.05 32.92L177.53 32.92L177.53 21.44L174.43 21.44ZM186.86 34.3Q188.43 35.76 191.35 35.76Q194.27 35.76 195.81 34.3Q195.85 34.26 195.89 34.22Q195.92 34.2 195.94 34.17Q197.43 32.63 197.43 29.64L197.43 21.44L194.37 21.44L194.37 29.66Q194.37 31.62 193.4 32.47Q192.66 33.12 191.35 33.12Q190.12 33.12 189.38 32.52Q189.22 32.39 189.09 32.25Q188.31 31.38 188.31 29.66L188.31 21.44L185.21 21.44L185.21 29.64Q185.21 32.58 186.68 34.12Q186.73 34.17 186.78 34.22Q186.82 34.26 186.86 34.3ZM200.17 21.44L200.17 35.54L206.85 35.54Q209.11 35.54 210.42 34.49Q210.88 34.12 211.18 33.65Q211.73 32.78 211.73 31.56Q211.73 30.47 211.24 29.68Q211.17 29.55 211.08 29.44Q210.98 29.31 210.87 29.19Q210.25 28.53 209.23 28.24Q210 27.93 210.51 27.38Q210.66 27.22 210.79 27.03Q210.88 26.9 210.96 26.76Q211.35 26.04 211.35 25.1Q211.35 24.08 210.91 23.32Q210.61 22.81 210.12 22.42Q208.89 21.44 206.63 21.44L200.17 21.44ZM206.09 27.24L203.13 27.24L203.13 23.74L206.09 23.74Q207.53 23.74 208.06 24.43Q208.37 24.84 208.37 25.48Q208.37 26.14 208.06 26.55Q207.52 27.24 206.09 27.24ZM82.29 28.06L79.47 28.06L79.47 23.86L82.29 23.86Q83.73 23.86 84.32 24.57Q84.75 25.07 84.75 25.94Q84.75 26.84 84.31 27.36Q83.7 28.06 82.29 28.06ZM90.33 35.34Q91.17 35.76 92.27 35.76Q93.29 35.76 94 35.3Q94.38 35.06 94.64 34.72Q94.87 34.43 95.01 34.06L95.01 35.54L97.83 35.54L97.83 29.74Q97.83 27.66 96.79 26.63Q96.75 26.59 96.71 26.55Q95.59 25.52 93.31 25.52Q92.57 25.52 91.75 25.67Q90.93 25.82 90.18 26.1Q89.43 26.38 88.91 26.72L89.73 28.74Q90.61 28.24 91.5 27.99Q92.39 27.74 93.19 27.74Q94.15 27.74 94.55 28.11Q94.95 28.48 94.95 29.36L94.95 29.7L94.23 29.7Q92.15 29.7 90.89 29.97Q89.63 30.24 89.07 30.88Q89.02 30.94 88.97 31.01Q88.51 31.62 88.51 32.58Q88.51 33.11 88.68 33.57Q88.8 33.9 89 34.2Q89.1 34.35 89.22 34.48Q89.66 35 90.33 35.34ZM116.53 35.34Q117.37 35.76 118.48 35.76Q119.49 35.76 120.2 35.3Q120.58 35.06 120.84 34.72Q121.07 34.43 121.21 34.06L121.21 35.54L124.03 35.54L124.03 29.74Q124.03 27.66 123 26.63Q122.95 26.59 122.91 26.55Q121.79 25.52 119.51 25.52Q118.77 25.52 117.95 25.67Q117.13 25.82 116.38 26.1Q115.63 26.38 115.11 26.72L115.93 28.74Q116.82 28.24 117.7 27.99Q118.59 27.74 119.39 27.74Q120.36 27.74 120.75 28.11Q121.15 28.48 121.15 29.36L121.15 29.7L120.43 29.7Q118.35 29.7 117.09 29.97Q115.83 30.24 115.27 30.88Q115.22 30.94 115.17 31.01Q114.71 31.62 114.71 32.58Q114.71 33.11 114.88 33.57Q115 33.9 115.2 34.2Q115.3 34.35 115.42 34.48Q115.86 35 116.53 35.34ZM145.19 35.34Q146.03 35.76 147.14 35.76Q148.15 35.76 148.86 35.3Q149.24 35.06 149.5 34.72Q149.73 34.43 149.87 34.06L149.87 35.54L152.69 35.54L152.69 29.74Q152.69 27.66 151.66 26.63Q151.61 26.59 151.57 26.55Q150.45 25.52 148.17 25.52Q147.43 25.52 146.61 25.67Q145.79 25.82 145.04 26.1Q144.29 26.38 143.77 26.72L144.59 28.74Q145.48 28.24 146.36 27.99Q147.25 27.74 148.05 27.74Q149.02 27.74 149.41 28.11Q149.81 28.48 149.81 29.36L149.81 29.7L149.09 29.7Q147.01 29.7 145.75 29.97Q144.49 30.24 143.93 30.88Q143.88 30.94 143.83 31.01Q143.37 31.62 143.37 32.58Q143.37 33.11 143.54 33.57Q143.66 33.9 143.86 34.2Q143.96 34.35 144.08 34.48Q144.52 35 145.19 35.34ZM206.43 33.24L203.13 33.24L203.13 29.54L206.43 29.54Q207.63 29.54 208.19 30Q208.3 30.09 208.39 30.2Q208.75 30.64 208.75 31.38Q208.75 32.16 208.37 32.61Q208.29 32.7 208.19 32.78Q207.63 33.24 206.43 33.24ZM93.8 33.56Q93.42 33.74 92.95 33.74Q92.21 33.74 91.82 33.38Q91.66 33.23 91.56 33.04Q91.43 32.79 91.43 32.46Q91.43 32.16 91.56 31.94Q91.72 31.68 92.07 31.53Q92.71 31.26 94.25 31.26L94.95 31.26L94.95 31.66Q94.95 32.3 94.67 32.77Q94.55 32.98 94.37 33.16Q94.11 33.42 93.8 33.56ZM120 33.56Q119.62 33.74 119.15 33.74Q118.41 33.74 118.02 33.38Q117.86 33.23 117.76 33.04Q117.63 32.79 117.63 32.46Q117.63 32.16 117.76 31.94Q117.92 31.68 118.27 31.53Q118.91 31.26 120.45 31.26L121.15 31.26L121.15 31.66Q121.15 32.3 120.87 32.77Q120.75 32.98 120.57 33.16Q120.31 33.42 120 33.56ZM148.66 33.56Q148.28 33.74 147.81 33.74Q147.07 33.74 146.68 33.38Q146.52 33.23 146.42 33.04Q146.29 32.79 146.29 32.46Q146.29 32.16 146.42 31.94Q146.58 31.68 146.93 31.53Q147.57 31.26 149.11 31.26L149.81 31.26L149.81 31.66Q149.81 32.3 149.53 32.77Q149.41 32.98 149.23 33.16Q148.97 33.42 148.66 33.56Z" fill="#0EC583" fill-opacity="1.000000" fill-rule="evenodd"/>
	<path id="Vector" d="M51.18 0.05C51.32 0.09 51.49 0.15 51.58 0.18C51.65 0.23 51.87 0.28 52.05 0.31C52.23 0.33 52.61 0.48 52.9 0.63C53.19 0.77 53.61 1.05 53.84 1.25C54.07 1.44 54.46 1.9 54.7 2.25C54.94 2.61 55.21 3 55.29 3.12C55.37 3.24 55.51 3.44 55.59 3.58C55.71 3.79 55.74 3.81 55.88 3.68C55.96 3.61 56.07 3.55 56.12 3.55C56.16 3.55 56.41 3.35 56.67 3.08C57.08 2.65 57.15 2.6 57.77 2.64L57.75 3.38C57.75 3.79 57.7 4.37 57.64 4.68C57.59 4.99 57.53 5.39 57.5 5.57C57.48 5.85 57.49 5.9 57.67 5.94C57.77 5.97 58.15 5.98 58.51 5.95C58.87 5.94 59.64 5.94 60.22 5.97C61.02 6.01 61.31 6.06 61.43 6.16C61.53 6.24 61.82 6.42 62.08 6.55C62.34 6.69 62.65 6.82 62.77 6.85C62.91 6.87 63 6.96 63.02 7.06C63.04 7.16 63 7.32 62.93 7.43C62.83 7.6 62.84 7.65 63.12 7.95C63.3 8.13 63.58 8.51 63.75 8.79C63.92 9.08 64.19 9.63 64.34 10.01C64.51 10.43 64.64 10.94 64.67 11.33C64.73 11.94 64.72 11.96 64.54 11.96C64.39 11.96 64.31 11.87 64.2 11.63C64.13 11.45 64 11.24 63.92 11.15C63.84 11.06 63.71 11 63.64 11C63.58 11 63.45 11.06 63.38 11.13C63.31 11.21 63.18 11.27 63.11 11.26C62.99 11.26 62.95 11.19 62.95 11C62.95 10.86 62.87 10.61 62.77 10.44C62.67 10.25 62.53 10.14 62.43 10.14C62.32 10.14 62.21 10.23 62.15 10.37C62.09 10.49 61.98 10.61 61.93 10.63C61.86 10.65 61.71 10.42 61.57 10.11C61.41 9.77 61.19 9.46 60.94 9.25C60.69 9.03 60.35 8.86 59.95 8.73C59.46 8.6 59.29 8.58 59.15 8.66C59.03 8.71 58.95 8.82 58.95 8.9C58.95 8.99 59.16 9.22 59.44 9.42C59.72 9.62 60.24 10.07 60.61 10.41C60.97 10.76 61.5 11.38 61.77 11.78C62.04 12.19 62.36 12.66 62.48 12.82C62.6 12.99 62.81 13.2 62.93 13.28C63.06 13.37 63.3 13.49 63.45 13.56C63.64 13.65 63.73 13.75 63.73 13.88C63.73 13.99 63.83 14.22 63.94 14.38C64.1 14.62 64.13 14.77 64.11 15.05C64.09 15.34 64.04 15.42 63.93 15.42C63.84 15.42 63.68 15.33 63.56 15.21C63.44 15.08 63.27 14.99 63.19 14.99C63.1 14.99 63.02 15.08 62.98 15.22C62.95 15.36 62.84 15.63 62.72 15.83C62.58 16.07 62.45 16.2 62.34 16.2C62.24 16.2 62.07 16.06 61.93 15.85C61.79 15.65 61.57 15.35 61.43 15.19C61.18 14.9 61.16 14.89 61.02 15.02C60.93 15.1 60.86 15.24 60.86 15.34C60.86 15.43 60.81 15.53 60.76 15.57C60.69 15.6 60.57 15.53 60.48 15.41C60.39 15.3 60.16 14.89 59.98 14.51C59.73 13.98 59.51 13.69 59.09 13.27C58.76 12.98 58.41 12.68 58.28 12.62C58.14 12.55 57.92 12.48 57.77 12.47C57.58 12.44 57.51 12.47 57.49 12.58C57.48 12.67 57.61 13 57.79 13.32C57.96 13.65 58.16 14.14 58.22 14.43C58.3 14.82 58.3 15.22 58.24 16C58.2 16.59 58.13 17.14 58.09 17.21C58.05 17.3 57.96 17.6 57.9 17.89C57.83 18.18 57.78 18.45 57.78 18.5C57.77 18.55 57.7 18.71 57.61 18.86C57.54 19.02 57.41 19.15 57.34 19.15C57.27 19.15 57.18 19.08 57.14 18.99C57.12 18.91 56.96 18.7 56.8 18.51C56.64 18.34 56.51 18.12 56.51 18.02C56.51 17.93 56.47 17.83 56.42 17.8C56.38 17.78 56.3 17.81 56.27 17.86C56.22 17.93 56.12 18.23 56.04 18.54C55.95 18.85 55.87 19.16 55.85 19.21C55.83 19.27 55.75 19.32 55.68 19.32C55.61 19.32 55.49 19.26 55.42 19.19C55.35 19.12 55.31 19 55.34 18.93C55.36 18.86 55.32 18.77 55.25 18.73C55.16 18.7 55.07 18.73 54.99 18.84C54.89 18.98 54.85 19 54.75 18.9C54.67 18.83 54.62 18.38 54.59 17.39C54.55 16.62 54.48 15.81 54.43 15.6C54.38 15.38 54.29 14.99 54.25 14.73C54.2 14.47 54.12 14.2 54.07 14.14C54.02 14.09 53.93 14.05 53.88 14.08C53.82 14.11 53.7 14.33 53.6 14.57C53.52 14.82 53.26 15.42 53.05 15.9C52.84 16.37 52.59 16.98 52.49 17.24C52.4 17.5 52.33 17.8 52.33 17.91C52.33 18.02 52.27 18.19 52.2 18.3C52.13 18.41 51.98 18.96 51.85 19.54C51.72 20.11 51.59 20.71 51.56 20.88C51.52 21.04 51.45 21.27 51.39 21.37C51.33 21.49 51.29 21.69 51.29 21.83C51.29 21.97 51.23 22.32 51.16 22.59C51.09 22.86 50.99 23.34 50.95 23.65C50.91 23.96 50.81 24.73 50.72 25.34C50.65 25.96 50.54 26.54 50.5 26.61C50.45 26.7 50.38 27.15 50.32 27.61C50.27 28.08 50.22 28.71 50.21 29.02C50.19 29.33 50.15 30.38 50.11 31.36C50.05 32.84 50.06 33.15 50.17 33.24C50.24 33.3 50.51 33.39 50.77 33.44C51.03 33.48 51.7 33.58 52.25 33.66C52.79 33.73 53.46 33.84 53.73 33.91C53.99 33.98 54.64 34.1 55.16 34.17C55.69 34.24 56.35 34.33 56.64 34.37C56.93 34.4 57.19 34.42 57.23 34.41C57.27 34.4 57.52 34.45 57.8 34.52C58.07 34.59 58.86 34.71 59.56 34.79C60.25 34.86 61.33 34.97 61.95 35.03C62.57 35.09 63.12 35.16 63.17 35.19C63.22 35.22 63.64 35.29 64.12 35.35C64.6 35.4 65.09 35.46 65.21 35.48C65.33 35.49 65.86 35.54 66.39 35.6C66.92 35.65 67.62 35.71 67.95 35.74C68.29 35.78 67.88 36 67.95 36.04C68.02 36.08 53.34 35.95 34.43 35.95C15.52 35.95 0.04 35.93 0.04 35.88C0.03 35.85 0.08 35.78 0.14 35.72C0.2 35.66 0.49 35.53 0.78 35.43C1.07 35.33 1.61 35.15 2 35.03C2.38 34.91 2.91 34.78 3.17 34.73C3.43 34.69 3.77 34.62 3.91 34.59C4.06 34.57 4.94 34.34 5.87 34.09C6.8 33.85 7.8 33.6 8.09 33.54C8.38 33.48 8.75 33.4 8.91 33.36C9.08 33.32 9.65 33.17 10.18 33.02C10.71 32.88 11.45 32.68 11.83 32.58C12.21 32.49 12.73 32.37 12.96 32.31C13.2 32.27 13.91 32.13 14.53 32.02C15.15 31.91 15.95 31.76 16.3 31.69C16.65 31.63 16.97 31.54 17.02 31.49C17.06 31.44 17.05 31.29 17.01 31.14C16.96 31.01 16.76 30.43 16.57 29.89C16.38 29.34 16.22 28.86 16.22 28.81C16.22 28.75 16.14 28.42 16.02 28.07C15.91 27.71 15.77 27.26 15.73 27.07C15.68 26.88 15.53 26.46 15.4 26.12C15.27 25.78 15.05 25.22 14.92 24.86C14.79 24.51 14.61 24.06 14.5 23.87C14.4 23.68 14.27 23.25 14.2 22.91C14.13 22.58 13.96 22.01 13.85 21.66C13.73 21.3 13.58 20.78 13.51 20.49C13.44 20.18 13.32 19.91 13.2 19.8C13.05 19.67 12.93 19.33 12.71 18.45C12.49 17.56 12.39 17.28 12.28 17.26C12.18 17.25 12.06 17.41 11.86 17.82C11.72 18.15 11.48 18.57 11.34 18.77C11.2 18.98 11.04 19.15 10.99 19.15C10.92 19.16 10.77 19.05 10.64 18.93C10.5 18.81 10.33 18.71 10.26 18.71C10.19 18.71 10.08 18.8 10.01 18.9C9.95 19.02 9.83 19.28 9.75 19.49C9.65 19.79 9.53 19.91 9.32 20C9.09 20.1 9.03 20.1 8.93 20C8.87 19.93 8.78 19.72 8.74 19.51C8.66 19.19 8.69 19.04 8.95 18.3C9.11 17.84 9.38 17.1 9.57 16.68C9.74 16.25 9.97 15.79 10.05 15.66C10.18 15.47 10.19 15.4 10.12 15.34C10.04 15.27 9.85 15.33 9.48 15.5C9.16 15.66 8.78 15.93 8.52 16.22C8.29 16.47 7.97 16.88 7.84 17.11C7.7 17.35 7.53 17.73 7.47 17.98C7.41 18.21 7.37 18.45 7.4 18.5C7.42 18.55 7.4 18.64 7.36 18.71C7.3 18.79 7.23 18.82 7.14 18.77C7.06 18.74 6.91 18.53 6.82 18.3C6.71 18.07 6.58 17.83 6.52 17.76C6.43 17.67 6.42 17.48 6.47 17.07C6.52 16.58 6.51 16.49 6.37 16.35C6.25 16.24 6.15 16.22 5.5 16.33L5.56 15.47L5.03 15.48C4.59 15.5 4.48 15.48 4.48 15.38C4.48 15.31 4.64 15.09 4.84 14.9C5.04 14.71 5.24 14.56 5.28 14.56C5.31 14.56 5.36 14.48 5.39 14.38C5.42 14.29 5.62 14.08 5.85 13.93C6.08 13.78 6.39 13.58 6.55 13.5C6.7 13.41 6.88 13.34 6.94 13.34C6.99 13.34 7.1 13.28 7.17 13.21C7.24 13.13 7.56 13.02 7.87 12.95C8.18 12.88 8.59 12.83 8.78 12.82C8.98 12.82 9.51 12.76 9.96 12.68C10.41 12.61 10.84 12.5 10.9 12.45C10.99 12.36 10.92 12.26 10.59 11.9C10.37 11.65 9.98 11.36 9.74 11.24C9.51 11.12 9.09 10.96 8.83 10.88C8.57 10.81 8 10.74 7.57 10.74C7.14 10.73 6.67 10.75 6.52 10.79C6.38 10.82 6.05 11 5.35 11.48L5.06 11.2C4.91 11.05 4.73 10.92 4.68 10.92C4.62 10.92 4.55 10.88 4.52 10.83C4.49 10.78 4.77 10.46 5.13 10.11C5.49 9.77 5.77 9.44 5.78 9.38C5.78 9.32 5.72 9.27 5.65 9.27C5.58 9.27 5.26 9.41 4.94 9.58C4.61 9.76 4.29 9.88 4.24 9.84C4.18 9.82 4.13 9.73 4.13 9.66C4.13 9.59 4.28 9.46 4.46 9.37C4.63 9.28 4.98 9.11 5.22 8.99C5.46 8.86 5.87 8.72 6.13 8.66C6.39 8.6 6.67 8.53 6.74 8.49C6.81 8.45 6.93 8.45 7 8.49C7.07 8.53 7.52 8.6 8 8.66C8.48 8.72 9.19 8.85 9.59 8.95C10.18 9.11 10.33 9.12 10.42 9.03C10.51 8.94 10.48 8.84 10.31 8.52C10.18 8.29 9.93 8 9.73 7.85C9.53 7.7 9.11 7.36 8.78 7.08C8.44 6.81 8.06 6.54 7.91 6.5C7.76 6.46 7.6 6.32 7.52 6.15C7.4 5.89 7.4 5.88 7.87 5.42L8.68 5.51C9.35 5.59 9.59 5.67 10.16 5.97C10.77 6.29 10.84 6.31 10.94 6.18C11.02 6.07 11.04 5.61 11.02 4.39C11 3.11 11.02 2.7 11.11 2.62C11.19 2.55 11.29 2.54 11.44 2.59C11.56 2.64 11.75 2.77 11.86 2.88C11.99 2.98 12.13 3.22 12.2 3.38C12.27 3.55 12.52 3.95 12.74 4.29C12.97 4.62 13.24 5.08 13.34 5.3C13.44 5.54 13.57 5.72 13.61 5.72C13.67 5.72 13.78 5.59 13.87 5.43C13.96 5.29 14.16 5.1 14.33 5.04C14.48 4.97 14.69 4.82 14.79 4.7C14.95 4.5 14.97 4.5 15.09 4.65C15.16 4.73 15.22 4.95 15.21 5.15C15.21 5.35 15.17 5.68 15.14 5.89C15.07 6.24 15.09 6.3 15.28 6.43C15.45 6.54 15.47 6.59 15.38 6.71C15.31 6.79 15.29 6.92 15.33 7.04C15.36 7.15 15.38 7.26 15.37 7.3C15.36 7.34 15.4 7.46 15.44 7.58C15.52 7.76 15.58 7.8 15.92 7.8C16.22 7.8 16.36 7.85 16.53 8.02C16.74 8.22 16.78 8.23 17.82 8.22C18.4 8.21 18.96 8.23 19.08 8.27C19.18 8.29 19.35 8.28 19.44 8.23C19.56 8.17 19.69 8.18 19.86 8.27C19.99 8.34 20.35 8.49 20.66 8.61C20.97 8.74 21.35 8.96 21.49 9.1C21.64 9.25 21.8 9.36 21.86 9.36C21.91 9.36 22.09 9.5 22.23 9.66C22.38 9.83 22.49 10.02 22.49 10.09C22.49 10.16 22.44 10.22 22.38 10.22C22.32 10.22 22.02 10.09 21.71 9.94C21.17 9.67 21.1 9.66 20.14 9.66C19.37 9.67 19.08 9.7 18.86 9.82C18.68 9.91 18.56 10.05 18.52 10.2C18.49 10.36 18.52 10.48 18.61 10.57C18.68 10.64 18.75 10.77 18.75 10.85C18.75 10.93 18.72 11.02 18.69 11.04C18.64 11.06 18.5 11.02 18.36 10.95C18.22 10.88 18.01 10.83 17.9 10.83C17.77 10.83 17.7 10.88 17.7 10.98C17.7 11.08 17.86 11.2 18.16 11.32C18.46 11.45 18.72 11.5 18.92 11.46C19.18 11.43 19.29 11.47 19.69 11.8C19.94 12 20.14 12.21 20.14 12.26C20.14 12.31 20.22 12.44 20.31 12.56C20.41 12.68 20.48 12.81 20.46 12.87C20.44 12.92 20.33 12.96 20.22 12.97C20.1 12.97 19.96 12.98 19.9 12.99C19.84 13 19.73 13.11 19.66 13.26C19.59 13.4 19.5 13.52 19.44 13.52C19.4 13.52 19.05 13.38 18.69 13.2C18.09 12.93 17.93 12.88 17.42 12.9C17.09 12.9 16.64 12.97 16.4 13.04C16.16 13.11 15.96 13.22 15.96 13.27C15.96 13.34 16.2 13.43 16.59 13.49C16.94 13.55 17.48 13.66 17.79 13.74C18.1 13.82 18.48 13.93 18.62 13.99C18.76 14.05 19.02 14.15 19.18 14.21C19.35 14.28 19.64 14.43 19.83 14.54C20.03 14.66 20.36 14.8 20.57 14.86C20.79 14.92 21.18 15.06 21.44 15.16C21.71 15.27 22.09 15.42 22.3 15.5C22.51 15.58 22.69 15.71 22.71 15.79C22.73 15.87 22.73 16.02 22.71 16.11C22.67 16.27 22.57 16.3 21.86 16.33C21.42 16.36 20.33 16.36 19.44 16.34C18.56 16.32 17.3 16.28 16.66 16.24C15.87 16.2 15.44 16.14 15.35 16.06C15.28 15.99 14.99 15.91 14.7 15.85C14.41 15.8 14.16 15.74 14.14 15.72C14.11 15.71 14.02 15.73 13.93 15.79C13.78 15.89 13.77 15.94 13.87 16.33C13.92 16.57 14.05 17.04 14.14 17.37C14.23 17.7 14.39 18.23 14.47 18.54C14.57 18.85 14.72 19.42 14.82 19.8C14.92 20.18 15.04 20.65 15.08 20.84C15.14 21.03 15.23 21.26 15.3 21.36C15.38 21.45 15.44 21.59 15.44 21.66C15.44 21.73 15.55 22.02 15.69 22.31C15.82 22.59 15.96 22.92 15.99 23.04C16.02 23.17 16.27 23.69 16.55 24.21C16.83 24.74 17.11 25.31 17.18 25.47C17.24 25.63 17.45 26.07 17.64 26.42C17.83 26.78 18.36 27.76 18.8 28.59C19.24 29.42 19.73 30.31 19.9 30.56C20.05 30.82 20.26 31.05 20.36 31.08C20.45 31.1 22.19 31.14 24.23 31.15C26.26 31.17 28.34 31.21 28.84 31.23C29.34 31.25 30.05 31.31 30.41 31.36C30.76 31.4 31.81 31.48 32.71 31.53C33.63 31.58 34.62 31.66 34.93 31.7C35.24 31.74 35.54 31.77 35.58 31.75C35.64 31.73 35.7 31.66 35.72 31.6C35.75 31.54 35.73 31.12 35.7 30.67C35.65 30.22 35.6 27.24 35.59 24.04C35.57 18.91 35.55 18.2 35.42 17.91C35.33 17.72 35.22 17.59 35.13 17.59C35.03 17.58 34.91 17.72 34.81 17.95C34.72 18.16 34.62 18.39 34.57 18.47C34.53 18.56 34.5 18.77 34.5 18.93C34.5 19.09 34.43 19.45 34.37 19.71C34.3 19.97 34.2 20.19 34.15 20.19C34.1 20.19 33.94 20.1 33.8 19.99C33.65 19.88 33.54 19.72 33.54 19.62C33.54 19.53 33.52 19.36 33.5 19.25C33.47 19.15 33.4 19.06 33.35 19.06C33.29 19.06 33.05 19.22 32.83 19.41C32.5 19.68 32.41 19.8 32.42 19.99C32.43 20.13 32.36 20.38 32.29 20.55C32.21 20.73 32.1 21.18 32.05 21.55C32 21.92 31.96 22.37 31.96 22.54C31.97 22.79 31.92 22.91 31.78 23C31.67 23.07 31.49 23.13 31.36 23.13C31.17 23.13 31.14 23.09 31.09 22.72C31.05 22.49 31.06 22.06 31.1 21.75C31.15 21.43 31.21 21.12 31.23 21.05C31.26 20.98 31.37 20.38 31.49 19.71C31.61 19.04 31.76 18.28 31.84 18.02C31.91 17.76 32.22 17.06 32.52 16.46C32.83 15.86 33.18 15.18 33.3 14.95C33.43 14.7 33.56 14.36 33.67 13.86L33.23 13.86C33 13.86 32.55 13.93 32.23 14.02C31.92 14.11 31.48 14.3 31.23 14.43C31 14.56 30.73 14.75 30.65 14.83C30.56 14.92 30.39 15.01 30.26 15.04C30.12 15.08 29.91 15.17 29.78 15.26C29.64 15.35 29.5 15.4 29.45 15.38C29.4 15.35 29.39 15.15 29.43 14.86C29.48 14.46 29.47 14.38 29.36 14.37C29.29 14.36 29.07 14.36 28.87 14.37C28.61 14.38 28.47 14.34 28.43 14.25C28.38 14.16 28.45 14.04 28.62 13.85C28.77 13.72 29.06 13.52 29.28 13.41C29.49 13.32 30.02 13.07 30.45 12.87C30.89 12.66 31.49 12.45 31.84 12.39C32.18 12.33 32.56 12.24 32.69 12.18C32.83 12.13 32.94 12.03 32.93 11.97C32.93 11.92 32.8 11.74 32.65 11.58C32.44 11.37 32.26 11.27 31.97 11.23C31.69 11.19 31.53 11.2 31.39 11.3C31.28 11.38 31.1 11.42 31 11.39C30.88 11.36 30.62 11.42 30.39 11.52C30.15 11.62 29.88 11.68 29.78 11.64C29.67 11.62 29.48 11.64 29.34 11.69C29.21 11.74 28.94 11.94 28.75 12.13C28.56 12.32 28.37 12.48 28.32 12.48C28.27 12.48 28.2 12.41 28.18 12.32C28.14 12.24 28.2 11.97 28.31 11.74C28.41 11.5 28.49 11.26 28.49 11.19C28.49 11.14 28.43 11.09 28.36 11.09C28.29 11.09 28.2 11.19 28.14 11.31C28.07 11.49 28.01 11.51 27.82 11.47C27.68 11.44 27.48 11.41 27.36 11.4C27.22 11.4 27.13 11.34 27.12 11.22C27.1 11.1 27.33 10.78 27.82 10.22C28.23 9.77 28.77 9.23 29.03 9.01C29.28 8.79 29.63 8.53 29.8 8.42C30.03 8.28 30.24 8.24 30.71 8.23C31.05 8.23 31.52 8.28 31.76 8.35C32 8.41 32.39 8.58 32.63 8.72C32.87 8.86 33.37 9.26 33.76 9.64C34.14 10 34.52 10.3 34.61 10.31C34.7 10.31 34.76 10.25 34.76 10.15C34.77 10.08 34.65 9.87 34.52 9.7C34.38 9.54 34.06 9.19 33.8 8.93C33.54 8.67 33.06 8.27 32.75 8.02C32.43 7.78 31.96 7.42 31.7 7.22C31.44 7.01 31.12 6.76 30.98 6.66C30.84 6.54 30.68 6.4 30.62 6.34C30.53 6.27 30.52 6.2 30.58 6.11C30.65 6.01 30.85 5.99 31.61 6.01C32.47 6.02 32.58 6.05 33.1 6.32C33.42 6.47 33.9 6.79 34.17 7.03C34.47 7.28 34.71 7.43 34.77 7.38C34.84 7.34 34.85 7.17 34.82 6.82C34.78 6.55 34.7 6.12 34.61 5.87C34.5 5.51 34.48 5.22 34.52 4.46C34.56 3.78 34.63 3.34 34.78 2.9C34.9 2.57 35.1 2.14 35.22 1.95C35.35 1.76 35.51 1.53 35.57 1.43C35.71 1.26 35.71 1.26 35.89 1.47C35.99 1.6 36.07 1.74 36.06 1.8C36.06 1.86 36.18 2.17 36.33 2.49C36.48 2.82 36.73 3.35 36.89 3.68C37.05 4.01 37.27 4.6 37.39 4.98C37.52 5.36 37.66 5.95 37.72 6.28C37.78 6.61 37.87 6.94 37.92 7C38 7.1 38.06 7.07 38.22 6.87C38.39 6.67 38.42 6.56 38.39 6.24C38.35 5.94 38.39 5.77 38.52 5.55C38.62 5.37 38.67 5.17 38.64 5.09C38.61 5 38.64 4.9 38.72 4.83C38.85 4.74 38.9 4.77 39.1 5.02C39.32 5.3 39.33 5.3 39.54 5.17C39.66 5.09 39.82 5.04 39.89 5.07C39.96 5.09 40.08 5.21 40.15 5.34C40.26 5.53 40.26 5.65 40.18 6.2C40.1 6.65 40.09 6.9 40.15 7.02C40.2 7.11 40.29 7.19 40.35 7.19C40.4 7.19 40.59 7.11 40.74 7.02C40.89 6.92 41.09 6.75 41.18 6.63C41.26 6.51 41.41 6.4 41.53 6.37C41.63 6.34 41.88 6.14 42.09 5.89C42.29 5.66 42.53 5.46 42.61 5.46C42.69 5.46 42.81 5.54 42.85 5.63C42.9 5.73 42.94 5.89 42.94 6C42.94 6.11 42.81 6.39 42.67 6.63C42.54 6.86 42.41 7.14 42.41 7.24C42.41 7.33 42.18 7.74 41.89 8.15C41.52 8.66 41.37 8.94 41.41 9.31L43.07 9.33C44.11 9.34 44.96 9.4 45.37 9.48C45.73 9.55 46.2 9.65 46.81 9.82L47.55 9.11C48.17 8.52 48.38 8.36 48.88 8.19C49.23 8.06 49.45 7.93 49.44 7.86C49.41 7.79 49.24 7.76 48.93 7.76C48.67 7.77 48.15 7.82 47.77 7.87C47.38 7.91 47 7.94 46.92 7.92C46.82 7.89 46.76 7.81 46.76 7.63C46.76 7.48 46.8 7.3 46.84 7.21C46.89 7.13 46.9 7.01 46.87 6.96C46.82 6.87 46.67 6.88 45.5 7.11L44.63 6.85C44.15 6.7 43.71 6.56 43.66 6.53C43.6 6.52 43.55 6.46 43.55 6.41C43.55 6.36 43.64 6.27 43.76 6.2C43.88 6.13 44.02 5.97 44.07 5.85C44.14 5.68 44.22 5.63 44.44 5.63C44.63 5.63 44.81 5.55 45.02 5.35C45.18 5.2 45.49 4.95 45.71 4.79C45.93 4.65 46.33 4.42 46.59 4.29C46.85 4.16 47.24 4 47.46 3.94C47.68 3.87 47.98 3.81 48.14 3.81C48.29 3.81 48.6 3.86 48.84 3.92C49.06 3.97 49.58 4.13 50.01 4.26C50.43 4.39 50.83 4.49 50.9 4.46C50.97 4.44 51.03 4.35 51.03 4.26C51.04 4.19 50.83 3.94 50.58 3.73C50.32 3.51 49.98 3.23 49.81 3.11C49.64 2.99 49.37 2.83 49.2 2.75C49.04 2.67 48.72 2.57 48.5 2.51C48.29 2.46 47.9 2.36 47.66 2.29C47.33 2.2 47.2 2.12 47.2 2.01C47.2 1.93 47.32 1.8 47.48 1.72C47.63 1.64 48.06 1.54 48.42 1.48C48.77 1.42 49.21 1.41 49.37 1.44C49.54 1.47 49.88 1.54 50.11 1.61C50.36 1.67 50.63 1.73 50.72 1.72C50.82 1.71 50.98 1.73 51.1 1.76C51.24 1.8 51.31 1.78 51.34 1.67C51.38 1.56 51.32 1.46 51.12 1.3C50.88 1.11 50.85 1.03 50.83 0.65C50.83 0.41 50.85 0.17 50.89 0.11C50.92 0.05 51.04 0.02 51.18 0.05ZM43.09 12.57C43.03 12.57 42.8 12.57 42.57 12.57C42.34 12.56 42.15 12.6 42.15 12.65C42.15 12.69 42.3 12.82 42.48 12.93C42.66 13.03 42.88 13.19 42.98 13.27C43.08 13.36 43.33 13.49 43.55 13.57C43.76 13.65 44.09 13.8 44.28 13.91C44.48 14.03 44.69 14.12 44.76 14.12C44.83 14.12 44.98 14.21 45.09 14.31C45.2 14.43 45.29 14.56 45.29 14.62C45.29 14.68 45.18 14.8 45.05 14.88C44.85 15.01 44.59 15.03 43.67 15.04C43.04 15.05 42.49 15.08 42.45 15.11C42.41 15.14 42.49 15.27 42.63 15.38C42.78 15.49 43.11 15.7 43.37 15.85C43.63 15.98 43.91 16.17 43.98 16.24C44.05 16.33 44.31 16.48 44.55 16.58C44.79 16.69 45.06 16.85 45.15 16.95C45.25 17.04 45.5 17.15 45.72 17.2C45.94 17.23 46.14 17.31 46.17 17.36C46.21 17.41 46.24 17.55 46.24 17.67C46.24 17.8 46.18 17.95 46.09 18.03C46.01 18.11 45.82 18.2 45.68 18.25C45.54 18.3 45.15 18.32 44.81 18.31C44.48 18.31 43.88 18.26 43.5 18.21C43.12 18.17 42.54 18.06 42.2 17.95C41.87 17.86 41.41 17.72 41.2 17.63C40.98 17.55 40.66 17.46 40.5 17.41C40.33 17.37 40 17.2 39.76 17.03C39.53 16.88 39.23 16.7 39.11 16.63C38.99 16.57 38.72 16.36 38.5 16.15C38.12 15.79 38.1 15.78 37.83 15.88C37.64 15.95 37.53 16.06 37.5 16.2C37.47 16.32 37.39 17 37.32 17.72C37.25 18.43 37.16 19.29 37.11 19.62C37.06 19.95 37.02 20.97 37.01 21.88C37 22.78 37.05 24.16 37.1 24.95C37.15 25.74 37.23 27.19 37.27 28.2C37.32 29.2 37.41 30.35 37.46 30.75C37.52 31.16 37.58 31.55 37.63 31.62C37.68 31.72 37.91 31.75 38.72 31.77C39.29 31.79 40.27 31.84 40.89 31.89C41.52 31.94 42.21 32.02 42.44 32.06C42.67 32.11 43.01 32.14 43.2 32.14C43.39 32.14 43.73 32.18 43.96 32.22C44.19 32.27 44.75 32.35 45.2 32.41C45.65 32.46 46.28 32.56 46.59 32.63C46.9 32.69 47.18 32.71 47.21 32.68C47.24 32.64 47.31 32.21 47.37 31.71C47.43 31.21 47.51 30.55 47.56 30.23C47.59 29.92 47.67 29.37 47.72 29C47.77 28.63 47.83 28.3 47.84 28.26C47.86 28.23 47.94 27.75 48.02 27.2C48.1 26.66 48.23 25.94 48.3 25.6C48.38 25.26 48.51 24.76 48.6 24.47C48.69 24.19 48.78 23.78 48.82 23.56C48.84 23.35 48.99 22.72 49.13 22.18C49.27 21.63 49.44 20.93 49.51 20.62C49.57 20.31 49.71 19.76 49.82 19.41C49.91 19.05 50.07 18.51 50.16 18.19C50.24 17.88 50.41 17.38 50.53 17.07C50.65 16.76 50.85 16.24 50.98 15.92C51.1 15.6 51.2 15.32 51.2 15.29C51.2 15.27 51.15 15.25 51.1 15.25C51.04 15.26 50.84 15.39 50.66 15.55C50.36 15.83 50.31 15.85 50.14 15.73C49.98 15.65 49.93 15.53 49.91 15.2C49.91 14.96 49.86 14.31 49.83 13.74L49.77 12.71C48.96 13.36 48.41 13.85 48.03 14.2C47.63 14.56 47.11 14.99 46.85 15.14C46.59 15.3 46.23 15.44 46.07 15.45C45.8 15.47 45.76 15.44 45.74 15.25C45.72 15.13 45.67 14.95 45.62 14.86C45.57 14.76 45.55 14.55 45.57 14.38C45.6 14.22 45.64 13.98 45.68 13.86C45.71 13.73 45.67 13.5 45.56 13.26C45.41 12.88 45.37 12.86 44.67 12.59C44.27 12.44 43.8 12.29 43.62 12.26C43.36 12.21 43.3 12.23 43.26 12.38C43.22 12.49 43.14 12.56 43.09 12.57Z" fill="#0EC583" fill-opacity="1.000000" fill-rule="evenodd"/>
	<path id="Vector" d="M51.58 0.18C51.65 0.23 51.87 0.28 52.05 0.31C52.23 0.33 52.61 0.48 52.9 0.63C53.19 0.77 53.61 1.05 53.84 1.25C54.07 1.44 54.46 1.9 54.7 2.25C54.94 2.61 55.21 3 55.29 3.12C55.37 3.24 55.51 3.44 55.59 3.58C55.71 3.79 55.74 3.81 55.88 3.68C55.96 3.61 56.07 3.55 56.12 3.55C56.16 3.55 56.41 3.35 56.67 3.08C57.08 2.65 57.15 2.6 57.77 2.64L57.75 3.38C57.75 3.79 57.7 4.37 57.64 4.68C57.59 4.99 57.53 5.39 57.5 5.57C57.48 5.85 57.49 5.9 57.67 5.94C57.77 5.97 58.15 5.98 58.51 5.95C58.87 5.94 59.64 5.94 60.22 5.97C61.02 6.01 61.31 6.06 61.43 6.16C61.53 6.24 61.82 6.42 62.08 6.55C62.34 6.69 62.65 6.82 62.77 6.85C62.91 6.87 63 6.96 63.02 7.06C63.04 7.16 63 7.32 62.93 7.43C62.83 7.6 62.84 7.65 63.12 7.95C63.3 8.13 63.58 8.51 63.75 8.79C63.92 9.08 64.19 9.63 64.34 10.01C64.51 10.43 64.64 10.94 64.67 11.33C64.73 11.94 64.72 11.96 64.54 11.96C64.39 11.96 64.31 11.87 64.2 11.63C64.13 11.45 64 11.24 63.92 11.15C63.84 11.06 63.71 11 63.64 11C63.58 11 63.45 11.06 63.38 11.13C63.31 11.21 63.18 11.27 63.11 11.26C62.99 11.26 62.95 11.19 62.95 11C62.95 10.86 62.87 10.61 62.77 10.44C62.67 10.25 62.53 10.14 62.43 10.14C62.32 10.14 62.21 10.23 62.15 10.37C62.09 10.49 61.98 10.61 61.93 10.63C61.86 10.65 61.71 10.42 61.57 10.11C61.41 9.77 61.19 9.46 60.94 9.25C60.69 9.03 60.35 8.86 59.95 8.73C59.46 8.6 59.29 8.58 59.15 8.66C59.03 8.71 58.95 8.82 58.95 8.9C58.95 8.99 59.16 9.22 59.44 9.42C59.72 9.62 60.24 10.07 60.61 10.41C60.97 10.76 61.5 11.38 61.77 11.78C62.04 12.19 62.36 12.66 62.48 12.82C62.6 12.99 62.81 13.2 62.93 13.28C63.06 13.37 63.3 13.49 63.45 13.56C63.64 13.65 63.73 13.75 63.73 13.88C63.73 13.99 63.83 14.22 63.94 14.38C64.1 14.62 64.13 14.77 64.11 15.05C64.09 15.34 64.04 15.42 63.93 15.42C63.84 15.42 63.68 15.33 63.56 15.21C63.44 15.08 63.27 14.99 63.19 14.99C63.1 14.99 63.02 15.08 62.98 15.22C62.95 15.36 62.84 15.63 62.72 15.83C62.58 16.07 62.45 16.2 62.34 16.2C62.24 16.2 62.07 16.06 61.93 15.85C61.79 15.65 61.57 15.35 61.43 15.19C61.18 14.9 61.16 14.89 61.02 15.02C60.93 15.1 60.86 15.24 60.86 15.34C60.86 15.43 60.81 15.53 60.76 15.57C60.69 15.6 60.57 15.53 60.48 15.41C60.39 15.3 60.16 14.89 59.98 14.51C59.73 13.98 59.51 13.69 59.09 13.27C58.76 12.98 58.41 12.68 58.28 12.62C58.14 12.55 57.92 12.48 57.77 12.47C57.58 12.44 57.51 12.47 57.49 12.58C57.48 12.67 57.61 13 57.79 13.32C57.96 13.65 58.16 14.14 58.22 14.43C58.3 14.82 58.3 15.22 58.24 16C58.2 16.59 58.13 17.14 58.09 17.21C58.05 17.3 57.96 17.6 57.9 17.89C57.83 18.18 57.78 18.45 57.78 18.5C57.77 18.55 57.7 18.71 57.61 18.86C57.54 19.02 57.41 19.15 57.34 19.15C57.27 19.15 57.18 19.08 57.14 18.99C57.12 18.91 56.96 18.7 56.8 18.51C56.64 18.34 56.51 18.12 56.51 18.02C56.51 17.93 56.47 17.83 56.42 17.8C56.38 17.78 56.3 17.81 56.27 17.86C56.22 17.93 56.12 18.23 56.04 18.54C55.95 18.85 55.87 19.16 55.85 19.21C55.83 19.27 55.75 19.32 55.68 19.32C55.61 19.32 55.49 19.26 55.42 19.19C55.35 19.12 55.31 19 55.34 18.93C55.36 18.86 55.32 18.77 55.25 18.73C55.16 18.7 55.07 18.73 54.99 18.84C54.89 18.98 54.85 19 54.75 18.9C54.67 18.83 54.62 18.38 54.59 17.39C54.55 16.62 54.48 15.81 54.43 15.6C54.38 15.38 54.29 14.99 54.25 14.73C54.2 14.47 54.12 14.2 54.07 14.14C54.02 14.09 53.93 14.05 53.88 14.08C53.82 14.11 53.7 14.33 53.6 14.57C53.52 14.82 53.26 15.42 53.05 15.9C52.84 16.37 52.59 16.98 52.49 17.24C52.4 17.5 52.33 17.8 52.33 17.91C52.33 18.02 52.27 18.19 52.2 18.3C52.13 18.41 51.98 18.96 51.85 19.54C51.72 20.11 51.59 20.71 51.56 20.88C51.52 21.04 51.45 21.27 51.39 21.37C51.33 21.49 51.29 21.69 51.29 21.83C51.29 21.97 51.23 22.32 51.16 22.59C51.09 22.86 50.99 23.34 50.95 23.65C50.91 23.96 50.81 24.73 50.72 25.34C50.65 25.96 50.54 26.54 50.5 26.61C50.45 26.7 50.38 27.15 50.32 27.61C50.27 28.08 50.22 28.71 50.21 29.02C50.19 29.33 50.15 30.38 50.11 31.36C50.05 32.84 50.06 33.15 50.17 33.24C50.24 33.3 50.51 33.39 50.77 33.44C51.03 33.48 51.7 33.58 52.25 33.66C52.79 33.73 53.46 33.84 53.73 33.91C53.99 33.98 54.64 34.1 55.16 34.17C55.69 34.24 56.35 34.33 56.64 34.37C56.93 34.4 57.19 34.42 57.23 34.41C57.27 34.4 57.52 34.45 57.8 34.52C58.07 34.59 58.86 34.71 59.56 34.79C60.25 34.86 61.33 34.97 61.95 35.03C62.57 35.09 63.12 35.16 63.17 35.19C63.22 35.22 63.64 35.29 64.12 35.35C64.6 35.4 65.09 35.46 65.21 35.48C65.33 35.49 65.86 35.54 66.39 35.6C66.92 35.65 67.62 35.71 67.95 35.74C68.29 35.78 67.88 36 67.95 36.04C68.02 36.08 53.34 35.95 34.43 35.95C15.52 35.95 0.04 35.93 0.04 35.88C0.03 35.85 0.08 35.78 0.14 35.72C0.2 35.66 0.49 35.53 0.78 35.43C1.07 35.33 1.61 35.15 2 35.03C2.38 34.91 2.91 34.78 3.17 34.73C3.43 34.69 3.77 34.62 3.91 34.59C4.06 34.57 4.94 34.34 5.87 34.09C6.8 33.85 7.8 33.6 8.09 33.54C8.38 33.48 8.75 33.4 8.91 33.36C9.08 33.32 9.65 33.17 10.18 33.02C10.71 32.88 11.45 32.68 11.83 32.58C12.21 32.49 12.73 32.37 12.96 32.31C13.2 32.27 13.91 32.13 14.53 32.02C15.15 31.91 15.95 31.76 16.3 31.69C16.65 31.63 16.97 31.54 17.02 31.49C17.06 31.44 17.05 31.29 17.01 31.14C16.96 31.01 16.76 30.43 16.57 29.89C16.38 29.34 16.22 28.86 16.22 28.81C16.22 28.75 16.14 28.42 16.02 28.07C15.91 27.71 15.77 27.26 15.73 27.07C15.68 26.88 15.53 26.46 15.4 26.12C15.27 25.78 15.05 25.22 14.92 24.86C14.79 24.51 14.61 24.06 14.5 23.87C14.4 23.68 14.27 23.25 14.2 22.91C14.13 22.58 13.96 22.01 13.85 21.66C13.73 21.3 13.58 20.78 13.51 20.49C13.44 20.18 13.32 19.91 13.2 19.8C13.05 19.67 12.93 19.33 12.71 18.45C12.49 17.56 12.39 17.28 12.28 17.26C12.18 17.25 12.06 17.41 11.86 17.82C11.72 18.15 11.48 18.57 11.34 18.77C11.2 18.98 11.04 19.15 10.99 19.15C10.92 19.16 10.77 19.05 10.64 18.93C10.5 18.81 10.33 18.71 10.26 18.71C10.19 18.71 10.08 18.8 10.01 18.9C9.95 19.02 9.83 19.28 9.75 19.49C9.65 19.79 9.53 19.91 9.32 20C9.09 20.1 9.03 20.1 8.93 20C8.87 19.93 8.78 19.72 8.74 19.51C8.66 19.19 8.69 19.04 8.95 18.3C9.11 17.84 9.38 17.1 9.57 16.68C9.74 16.25 9.97 15.79 10.05 15.66C10.18 15.47 10.19 15.4 10.12 15.34C10.04 15.27 9.85 15.33 9.48 15.5C9.16 15.66 8.78 15.93 8.52 16.22C8.29 16.47 7.97 16.88 7.84 17.11C7.7 17.35 7.53 17.73 7.47 17.98C7.41 18.21 7.37 18.45 7.4 18.5C7.42 18.55 7.4 18.64 7.36 18.71C7.3 18.79 7.23 18.82 7.14 18.77C7.06 18.74 6.91 18.53 6.82 18.3C6.71 18.07 6.58 17.83 6.52 17.76C6.43 17.67 6.42 17.48 6.47 17.07C6.52 16.58 6.51 16.49 6.37 16.35C6.25 16.24 6.15 16.22 5.5 16.33L5.56 15.47L5.03 15.48C4.59 15.5 4.48 15.48 4.48 15.38C4.48 15.31 4.64 15.09 4.84 14.9C5.04 14.71 5.24 14.56 5.28 14.56C5.31 14.56 5.36 14.48 5.39 14.38C5.42 14.29 5.62 14.08 5.85 13.93C6.08 13.78 6.39 13.58 6.55 13.5C6.7 13.41 6.88 13.34 6.94 13.34C6.99 13.34 7.1 13.28 7.17 13.21C7.24 13.13 7.56 13.02 7.87 12.95C8.18 12.88 8.59 12.83 8.78 12.82C8.98 12.82 9.51 12.76 9.96 12.68C10.41 12.61 10.84 12.5 10.9 12.45C10.99 12.36 10.92 12.26 10.59 11.9C10.37 11.65 9.98 11.36 9.74 11.24C9.51 11.12 9.09 10.96 8.83 10.88C8.57 10.81 8 10.74 7.57 10.74C7.14 10.73 6.67 10.75 6.52 10.79C6.38 10.82 6.05 11 5.35 11.48L5.06 11.2C4.91 11.05 4.73 10.92 4.68 10.92C4.62 10.92 4.55 10.88 4.52 10.83C4.49 10.78 4.77 10.46 5.13 10.11C5.49 9.77 5.77 9.44 5.78 9.38C5.78 9.32 5.72 9.27 5.65 9.27C5.58 9.27 5.26 9.41 4.94 9.58C4.61 9.76 4.29 9.88 4.24 9.84C4.18 9.82 4.13 9.73 4.13 9.66C4.13 9.59 4.28 9.46 4.46 9.37C4.63 9.28 4.98 9.11 5.22 8.99C5.46 8.86 5.87 8.72 6.13 8.66C6.39 8.6 6.67 8.53 6.74 8.49C6.81 8.45 6.93 8.45 7 8.49C7.07 8.53 7.52 8.6 8 8.66C8.48 8.72 9.19 8.85 9.59 8.95C10.18 9.11 10.33 9.12 10.42 9.03C10.51 8.94 10.48 8.84 10.31 8.52C10.18 8.29 9.93 8 9.73 7.85C9.53 7.7 9.11 7.36 8.78 7.08C8.44 6.81 8.06 6.54 7.91 6.5C7.76 6.46 7.6 6.32 7.52 6.15C7.4 5.89 7.4 5.88 7.87 5.42L8.68 5.51C9.35 5.59 9.59 5.67 10.16 5.97C10.77 6.29 10.84 6.31 10.94 6.18C11.02 6.07 11.04 5.61 11.02 4.39C11 3.11 11.02 2.7 11.11 2.62C11.19 2.55 11.29 2.54 11.44 2.59C11.56 2.64 11.75 2.77 11.86 2.88C11.99 2.98 12.13 3.22 12.2 3.38C12.27 3.55 12.52 3.95 12.74 4.29C12.97 4.62 13.24 5.08 13.34 5.3C13.44 5.54 13.57 5.72 13.61 5.72C13.67 5.72 13.78 5.59 13.87 5.43C13.96 5.29 14.16 5.1 14.33 5.04C14.48 4.97 14.69 4.82 14.79 4.7C14.95 4.5 14.97 4.5 15.09 4.65C15.16 4.73 15.22 4.95 15.21 5.15C15.21 5.35 15.17 5.68 15.14 5.89C15.07 6.24 15.09 6.3 15.28 6.43C15.45 6.54 15.47 6.59 15.38 6.71C15.31 6.79 15.29 6.92 15.33 7.04C15.36 7.15 15.38 7.26 15.37 7.3C15.36 7.34 15.4 7.46 15.44 7.58C15.52 7.76 15.58 7.8 15.92 7.8C16.22 7.8 16.36 7.85 16.53 8.02C16.74 8.22 16.78 8.23 17.82 8.22C18.4 8.21 18.96 8.23 19.08 8.27C19.18 8.29 19.35 8.28 19.44 8.23C19.56 8.17 19.69 8.18 19.86 8.27C19.99 8.34 20.35 8.49 20.66 8.61C20.97 8.74 21.35 8.96 21.49 9.1C21.64 9.25 21.8 9.36 21.86 9.36C21.91 9.36 22.09 9.5 22.23 9.66C22.38 9.83 22.49 10.02 22.49 10.09C22.49 10.16 22.44 10.22 22.38 10.22C22.32 10.22 22.02 10.09 21.71 9.94C21.17 9.67 21.1 9.66 20.14 9.66C19.37 9.67 19.08 9.7 18.86 9.82C18.68 9.91 18.56 10.05 18.52 10.2C18.49 10.36 18.52 10.48 18.61 10.57C18.68 10.64 18.75 10.77 18.75 10.85C18.75 10.93 18.72 11.02 18.69 11.04C18.64 11.06 18.5 11.02 18.36 10.95C18.22 10.88 18.01 10.83 17.9 10.83C17.77 10.83 17.7 10.88 17.7 10.98C17.7 11.08 17.86 11.2 18.16 11.32C18.46 11.45 18.72 11.5 18.92 11.46C19.18 11.43 19.29 11.47 19.69 11.8C19.94 12 20.14 12.21 20.14 12.26C20.14 12.31 20.22 12.44 20.31 12.56C20.41 12.68 20.48 12.81 20.46 12.87C20.44 12.92 20.33 12.96 20.22 12.97C20.1 12.97 19.96 12.98 19.9 12.99C19.84 13 19.73 13.11 19.66 13.26C19.59 13.4 19.5 13.52 19.44 13.52C19.4 13.52 19.05 13.38 18.69 13.2C18.09 12.93 17.93 12.88 17.42 12.9C17.09 12.9 16.64 12.97 16.4 13.04C16.16 13.11 15.96 13.22 15.96 13.27C15.96 13.34 16.2 13.43 16.59 13.49C16.94 13.55 17.48 13.66 17.79 13.74C18.1 13.82 18.48 13.93 18.62 13.99C18.76 14.05 19.02 14.15 19.18 14.21C19.35 14.28 19.64 14.43 19.83 14.54C20.03 14.66 20.36 14.8 20.57 14.86C20.79 14.92 21.18 15.06 21.44 15.16C21.71 15.27 22.09 15.42 22.3 15.5C22.51 15.58 22.69 15.71 22.71 15.79C22.73 15.87 22.73 16.02 22.71 16.11C22.67 16.27 22.57 16.3 21.86 16.33C21.42 16.36 20.33 16.36 19.44 16.34C18.56 16.32 17.3 16.28 16.66 16.24C15.87 16.2 15.44 16.14 15.35 16.06C15.28 15.99 14.99 15.91 14.7 15.85C14.41 15.8 14.16 15.74 14.14 15.72C14.11 15.71 14.02 15.73 13.93 15.79C13.78 15.89 13.77 15.94 13.87 16.33C13.92 16.57 14.05 17.04 14.14 17.37C14.23 17.7 14.39 18.23 14.47 18.54C14.57 18.85 14.72 19.42 14.82 19.8C14.92 20.18 15.04 20.65 15.08 20.84C15.14 21.03 15.23 21.26 15.3 21.36C15.38 21.45 15.44 21.59 15.44 21.66C15.44 21.73 15.55 22.02 15.69 22.31C15.82 22.59 15.96 22.92 15.99 23.04C16.02 23.17 16.27 23.69 16.55 24.21C16.83 24.74 17.11 25.31 17.18 25.47C17.24 25.63 17.45 26.07 17.64 26.42C17.83 26.78 18.36 27.76 18.8 28.59C19.24 29.42 19.73 30.31 19.9 30.56C20.05 30.82 20.26 31.05 20.36 31.08C20.45 31.1 22.19 31.14 24.23 31.15C26.26 31.17 28.34 31.21 28.84 31.23C29.34 31.25 30.05 31.31 30.41 31.36C30.76 31.4 31.81 31.48 32.71 31.53C33.63 31.58 34.62 31.66 34.93 31.7C35.24 31.74 35.54 31.77 35.58 31.75C35.64 31.73 35.7 31.66 35.72 31.6C35.75 31.54 35.73 31.12 35.7 30.67C35.65 30.22 35.6 27.24 35.59 24.04C35.57 18.91 35.55 18.2 35.42 17.91C35.33 17.72 35.22 17.59 35.13 17.59C35.03 17.58 34.91 17.72 34.81 17.95C34.72 18.16 34.62 18.39 34.57 18.47C34.53 18.56 34.5 18.77 34.5 18.93C34.5 19.09 34.43 19.45 34.37 19.71C34.3 19.97 34.2 20.19 34.15 20.19C34.1 20.19 33.94 20.1 33.8 19.99C33.65 19.88 33.54 19.72 33.54 19.62C33.54 19.53 33.52 19.36 33.5 19.25C33.47 19.15 33.4 19.06 33.35 19.06C33.29 19.06 33.05 19.22 32.83 19.41C32.5 19.68 32.41 19.8 32.42 19.99C32.43 20.13 32.36 20.38 32.29 20.55C32.21 20.73 32.1 21.18 32.05 21.55C32 21.92 31.96 22.37 31.96 22.54C31.97 22.79 31.92 22.91 31.78 23C31.67 23.07 31.49 23.13 31.36 23.13C31.17 23.13 31.14 23.09 31.09 22.72C31.05 22.49 31.06 22.06 31.1 21.75C31.15 21.43 31.21 21.12 31.23 21.05C31.26 20.98 31.37 20.38 31.49 19.71C31.61 19.04 31.76 18.28 31.84 18.02C31.91 17.76 32.22 17.06 32.52 16.46C32.83 15.86 33.18 15.18 33.3 14.95C33.43 14.7 33.56 14.36 33.67 13.86L33.23 13.86C33 13.86 32.55 13.93 32.23 14.02C31.92 14.11 31.48 14.3 31.23 14.43C31 14.56 30.73 14.75 30.65 14.83C30.56 14.92 30.39 15.01 30.26 15.04C30.12 15.08 29.91 15.17 29.78 15.26C29.64 15.35 29.5 15.4 29.45 15.38C29.4 15.35 29.39 15.15 29.43 14.86C29.48 14.46 29.47 14.38 29.36 14.37C29.29 14.36 29.07 14.36 28.87 14.37C28.61 14.38 28.47 14.34 28.43 14.25C28.38 14.16 28.45 14.04 28.62 13.85C28.77 13.72 29.06 13.52 29.28 13.41C29.49 13.32 30.02 13.07 30.45 12.87C30.89 12.66 31.49 12.45 31.84 12.39C32.18 12.33 32.56 12.24 32.69 12.18C32.83 12.13 32.94 12.03 32.93 11.97C32.93 11.92 32.8 11.74 32.65 11.58C32.44 11.37 32.26 11.27 31.97 11.23C31.69 11.19 31.53 11.2 31.39 11.3C31.28 11.38 31.1 11.42 31 11.39C30.88 11.36 30.62 11.42 30.39 11.52C30.15 11.62 29.88 11.68 29.78 11.64C29.67 11.62 29.48 11.64 29.34 11.69C29.21 11.74 28.94 11.94 28.75 12.13C28.56 12.32 28.37 12.48 28.32 12.48C28.27 12.48 28.2 12.41 28.18 12.32C28.14 12.24 28.2 11.97 28.31 11.74C28.41 11.5 28.49 11.26 28.49 11.19C28.49 11.14 28.43 11.09 28.36 11.09C28.29 11.09 28.2 11.19 28.14 11.31C28.07 11.49 28.01 11.51 27.82 11.47C27.68 11.44 27.48 11.41 27.36 11.4C27.22 11.4 27.13 11.34 27.12 11.22C27.1 11.1 27.33 10.78 27.82 10.22C28.23 9.77 28.77 9.23 29.03 9.01C29.28 8.79 29.63 8.53 29.8 8.42C30.03 8.28 30.24 8.24 30.71 8.23C31.05 8.23 31.52 8.28 31.76 8.35C32 8.41 32.39 8.58 32.63 8.72C32.87 8.86 33.37 9.26 33.76 9.64C34.14 10 34.52 10.3 34.61 10.31C34.7 10.31 34.76 10.25 34.76 10.15C34.77 10.08 34.65 9.87 34.52 9.7C34.38 9.54 34.06 9.19 33.8 8.93C33.54 8.67 33.06 8.27 32.75 8.02C32.43 7.78 31.96 7.42 31.7 7.22C31.44 7.01 31.12 6.76 30.98 6.66C30.84 6.54 30.68 6.4 30.62 6.34C30.53 6.27 30.52 6.2 30.58 6.11C30.65 6.01 30.85 5.99 31.61 6.01C32.47 6.02 32.58 6.05 33.1 6.32C33.42 6.47 33.9 6.79 34.17 7.03C34.47 7.28 34.71 7.43 34.77 7.38C34.84 7.34 34.85 7.17 34.82 6.82C34.78 6.55 34.7 6.12 34.61 5.87C34.5 5.51 34.48 5.22 34.52 4.46C34.56 3.78 34.63 3.34 34.78 2.9C34.9 2.57 35.1 2.14 35.22 1.95C35.35 1.76 35.51 1.53 35.57 1.43C35.71 1.26 35.71 1.26 35.89 1.47C35.99 1.6 36.07 1.74 36.06 1.8C36.06 1.86 36.18 2.17 36.33 2.49C36.48 2.82 36.73 3.35 36.89 3.68C37.05 4.01 37.27 4.6 37.39 4.98C37.52 5.36 37.66 5.95 37.72 6.28C37.78 6.61 37.87 6.94 37.92 7C38 7.1 38.06 7.07 38.22 6.87C38.39 6.67 38.42 6.56 38.39 6.24C38.35 5.94 38.39 5.77 38.52 5.55C38.62 5.37 38.67 5.17 38.64 5.09C38.61 5 38.64 4.9 38.72 4.83C38.85 4.74 38.9 4.77 39.1 5.02C39.32 5.3 39.33 5.3 39.54 5.17C39.66 5.09 39.82 5.04 39.89 5.07C39.96 5.09 40.08 5.21 40.15 5.34C40.26 5.53 40.26 5.65 40.18 6.2C40.1 6.65 40.09 6.9 40.15 7.02C40.2 7.11 40.29 7.19 40.35 7.19C40.4 7.19 40.59 7.11 40.74 7.02C40.89 6.92 41.09 6.75 41.18 6.63C41.26 6.51 41.41 6.4 41.53 6.37C41.63 6.34 41.88 6.14 42.09 5.89C42.29 5.66 42.53 5.46 42.61 5.46C42.69 5.46 42.81 5.54 42.85 5.63C42.9 5.73 42.94 5.89 42.94 6C42.94 6.11 42.81 6.39 42.67 6.63C42.54 6.86 42.41 7.14 42.41 7.24C42.41 7.33 42.18 7.74 41.89 8.15C41.52 8.66 41.37 8.94 41.41 9.31L43.07 9.33C44.11 9.34 44.96 9.4 45.37 9.48C45.73 9.55 46.2 9.65 46.81 9.82L47.55 9.11C48.17 8.52 48.38 8.36 48.88 8.19C49.23 8.06 49.45 7.93 49.44 7.86C49.41 7.79 49.24 7.76 48.93 7.76C48.67 7.77 48.15 7.82 47.77 7.87C47.38 7.91 47 7.94 46.92 7.92C46.82 7.89 46.76 7.81 46.76 7.63C46.76 7.48 46.8 7.3 46.84 7.21C46.89 7.13 46.9 7.01 46.87 6.96C46.82 6.87 46.67 6.88 45.5 7.11L44.63 6.85C44.15 6.7 43.71 6.56 43.66 6.53C43.6 6.52 43.55 6.46 43.55 6.41C43.55 6.36 43.64 6.27 43.76 6.2C43.88 6.13 44.02 5.97 44.07 5.85C44.14 5.68 44.22 5.63 44.44 5.63C44.63 5.63 44.81 5.55 45.02 5.35C45.18 5.2 45.49 4.95 45.71 4.79C45.93 4.65 46.33 4.42 46.59 4.29C46.85 4.16 47.24 4 47.46 3.94C47.68 3.87 47.98 3.81 48.14 3.81C48.29 3.81 48.6 3.86 48.84 3.92C49.06 3.97 49.58 4.13 50.01 4.26C50.43 4.39 50.83 4.49 50.9 4.46C50.97 4.44 51.03 4.35 51.03 4.26C51.04 4.19 50.83 3.94 50.58 3.73C50.32 3.51 49.98 3.23 49.81 3.11C49.64 2.99 49.37 2.83 49.2 2.75C49.04 2.67 48.72 2.57 48.5 2.51C48.29 2.46 47.9 2.36 47.66 2.29C47.33 2.2 47.2 2.12 47.2 2.01C47.2 1.93 47.32 1.8 47.48 1.72C47.63 1.64 48.06 1.54 48.42 1.48C48.77 1.42 49.21 1.41 49.37 1.44C49.54 1.47 49.88 1.54 50.11 1.61C50.36 1.67 50.63 1.73 50.72 1.72C50.82 1.71 50.98 1.73 51.1 1.76C51.24 1.8 51.31 1.78 51.34 1.67C51.38 1.56 51.32 1.46 51.12 1.3C50.88 1.11 50.85 1.03 50.83 0.65C50.83 0.41 50.85 0.17 50.89 0.11C50.92 0.05 51.04 0.02 51.18 0.05C51.32 0.09 51.49 0.15 51.58 0.18ZM42.57 12.57C42.34 12.56 42.15 12.6 42.15 12.65C42.15 12.69 42.3 12.82 42.48 12.93C42.66 13.03 42.88 13.19 42.98 13.27C43.08 13.36 43.33 13.49 43.55 13.57C43.76 13.65 44.09 13.8 44.28 13.91C44.48 14.03 44.69 14.12 44.76 14.12C44.83 14.12 44.98 14.21 45.09 14.31C45.2 14.43 45.29 14.56 45.29 14.62C45.29 14.68 45.18 14.8 45.05 14.88C44.85 15.01 44.59 15.03 43.67 15.04C43.04 15.05 42.49 15.08 42.45 15.11C42.41 15.14 42.49 15.27 42.63 15.38C42.78 15.49 43.11 15.7 43.37 15.85C43.63 15.98 43.91 16.17 43.98 16.24C44.05 16.33 44.31 16.48 44.55 16.58C44.79 16.69 45.06 16.85 45.15 16.95C45.25 17.04 45.5 17.15 45.72 17.2C45.94 17.23 46.14 17.31 46.17 17.36C46.21 17.41 46.24 17.55 46.24 17.67C46.24 17.8 46.18 17.95 46.09 18.03C46.01 18.11 45.82 18.2 45.68 18.25C45.54 18.3 45.15 18.32 44.81 18.31C44.48 18.31 43.88 18.26 43.5 18.21C43.12 18.17 42.54 18.06 42.2 17.95C41.87 17.86 41.41 17.72 41.2 17.63C40.98 17.55 40.66 17.46 40.5 17.41C40.33 17.37 40 17.2 39.76 17.03C39.53 16.88 39.23 16.7 39.11 16.63C38.99 16.57 38.72 16.36 38.5 16.15C38.12 15.79 38.1 15.78 37.83 15.88C37.64 15.95 37.53 16.06 37.5 16.2C37.47 16.32 37.39 17 37.32 17.72C37.25 18.43 37.16 19.29 37.11 19.62C37.06 19.95 37.02 20.97 37.01 21.88C37 22.78 37.05 24.16 37.1 24.95C37.15 25.74 37.23 27.19 37.27 28.2C37.32 29.2 37.41 30.35 37.46 30.75C37.52 31.16 37.58 31.55 37.63 31.62C37.68 31.72 37.91 31.75 38.72 31.77C39.29 31.79 40.27 31.84 40.89 31.89C41.52 31.94 42.21 32.02 42.44 32.06C42.67 32.11 43.01 32.14 43.2 32.14C43.39 32.14 43.73 32.18 43.96 32.22C44.19 32.27 44.75 32.35 45.2 32.41C45.65 32.46 46.28 32.56 46.59 32.63C46.9 32.69 47.18 32.71 47.21 32.68C47.24 32.64 47.31 32.21 47.37 31.71C47.43 31.21 47.51 30.55 47.56 30.23C47.59 29.92 47.67 29.37 47.72 29C47.77 28.63 47.83 28.3 47.84 28.26C47.86 28.23 47.94 27.75 48.02 27.2C48.1 26.66 48.23 25.94 48.3 25.6C48.38 25.26 48.51 24.76 48.6 24.47C48.69 24.19 48.78 23.78 48.82 23.56C48.84 23.35 48.99 22.72 49.13 22.18C49.27 21.63 49.44 20.93 49.51 20.62C49.57 20.31 49.71 19.76 49.82 19.41C49.91 19.05 50.07 18.51 50.16 18.19C50.24 17.88 50.41 17.38 50.53 17.07C50.65 16.76 50.85 16.24 50.98 15.92C51.1 15.6 51.2 15.32 51.2 15.29C51.2 15.27 51.15 15.25 51.1 15.25C51.04 15.26 50.84 15.39 50.66 15.55C50.36 15.83 50.31 15.85 50.14 15.73C49.98 15.65 49.93 15.53 49.91 15.2C49.91 14.96 49.86 14.31 49.83 13.74L49.77 12.71C48.96 13.36 48.41 13.85 48.03 14.2C47.63 14.56 47.11 14.99 46.85 15.14C46.59 15.3 46.23 15.44 46.07 15.45C45.8 15.47 45.76 15.44 45.74 15.25C45.72 15.13 45.67 14.95 45.62 14.86C45.57 14.76 45.55 14.55 45.57 14.38C45.6 14.22 45.64 13.98 45.68 13.86C45.71 13.73 45.67 13.5 45.56 13.26C45.41 12.88 45.37 12.86 44.67 12.59C44.27 12.44 43.8 12.29 43.62 12.26C43.36 12.21 43.3 12.23 43.26 12.38C43.22 12.49 43.14 12.56 43.09 12.57C43.03 12.57 42.8 12.57 42.57 12.57Z" stroke="#0EC583" stroke-opacity="1.000000" stroke-width="0.087011"/>
</svg>
