<svg width="24.000000" height="24.000000" viewBox="0 0 24 24" fill="none" xmlns="http://www.w3.org/2000/svg" xmlns:xlink="http://www.w3.org/1999/xlink">
	<desc>
			Created with Pixso.
	</desc>
	<defs>
		<clipPath id="clip802_1147">
			<rect id="Interface / Settings" rx="0.000000" width="23.000000" height="23.000000" transform="translate(0.500000 0.500000)" fill="white" fill-opacity="0"/>
		</clipPath>
	</defs>
	<g clip-path="url(#clip802_1147)">
		<path id="Vector" d="M20.34 8.92L20.35 8.92C20.94 9.25 21.24 9.42 21.46 9.65C21.65 9.86 21.8 10.11 21.89 10.38C21.99 10.68 21.99 11.02 21.99 11.71L21.99 12.28C21.99 12.96 21.99 13.3 21.89 13.61C21.8 13.88 21.66 14.13 21.46 14.34C21.25 14.58 20.94 14.74 20.34 15.08L19.98 15.28L19.98 15.28C19.92 15.31 19.9 15.32 19.87 15.34C19.59 15.5 19.36 15.73 19.19 16C19.18 16.03 19.16 16.06 19.13 16.11C19.1 16.17 19.08 16.2 19.07 16.22C18.91 16.51 18.83 16.82 18.83 17.14C18.83 17.17 18.83 17.2 18.83 17.27L18.84 17.71C18.85 18.38 18.85 18.72 18.76 19.02C18.67 19.3 18.53 19.55 18.34 19.76C18.13 20 17.84 20.17 17.25 20.51L16.75 20.8C16.16 21.14 15.86 21.31 15.55 21.38C15.27 21.44 14.98 21.44 14.7 21.37C14.39 21.3 14.09 21.13 13.5 20.77L13.13 20.55C13.08 20.52 13.06 20.51 13.03 20.49C12.76 20.34 12.44 20.25 12.12 20.24C12.09 20.24 12.06 20.24 11.99 20.24C11.93 20.24 11.9 20.24 11.86 20.24C11.55 20.25 11.24 20.34 10.96 20.49C10.93 20.51 10.9 20.52 10.85 20.56L10.49 20.77C9.9 21.12 9.61 21.3 9.3 21.37C9.02 21.43 8.73 21.43 8.45 21.37C8.14 21.31 7.84 21.14 7.25 20.8L6.76 20.51C6.16 20.17 5.86 20 5.65 19.76C5.46 19.54 5.32 19.29 5.23 19.02C5.14 18.71 5.14 18.37 5.15 17.69L5.16 17.28C5.16 17.21 5.16 17.17 5.16 17.14C5.16 16.83 5.08 16.52 4.93 16.24C4.92 16.21 4.9 16.18 4.86 16.12C4.83 16.06 4.81 16.03 4.79 16C4.63 15.73 4.4 15.5 4.12 15.34C4.09 15.32 4.06 15.31 4 15.27L3.64 15.07C3.05 14.74 2.75 14.57 2.53 14.34C2.34 14.13 2.19 13.88 2.11 13.61C2 13.31 2 12.97 2 12.28L2 11.72C2 11.03 2 10.69 2.1 10.38C2.19 10.11 2.33 9.86 2.53 9.65C2.75 9.41 3.05 9.25 3.65 8.91L4.01 8.71C4.07 8.68 4.1 8.67 4.12 8.65C4.4 8.49 4.63 8.26 4.8 7.99C4.81 7.96 4.83 7.93 4.86 7.88C4.89 7.82 4.91 7.79 4.92 7.77C5.08 7.48 5.16 7.17 5.16 6.85C5.16 6.82 5.16 6.79 5.16 6.72L5.15 6.3C5.14 5.61 5.14 5.27 5.23 4.97C5.32 4.69 5.46 4.44 5.65 4.23C5.86 3.99 6.15 3.82 6.74 3.48L6.75 3.48L7.23 3.19L7.24 3.19C7.83 2.85 8.13 2.68 8.44 2.61C8.72 2.55 9.01 2.55 9.29 2.62C9.6 2.69 9.9 2.86 10.49 3.22L10.84 3.43C10.9 3.46 10.93 3.48 10.96 3.5C11.24 3.65 11.55 3.74 11.87 3.75C11.9 3.75 11.93 3.75 12 3.75C12.06 3.75 12.09 3.75 12.13 3.75C12.44 3.74 12.76 3.65 13.03 3.5C13.06 3.48 13.09 3.47 13.15 3.43L13.5 3.22L13.5 3.22C14.09 2.87 14.38 2.69 14.69 2.62C14.97 2.56 15.26 2.56 15.54 2.62C15.85 2.68 16.15 2.85 16.74 3.19L17.24 3.48C17.83 3.82 18.13 3.99 18.34 4.23C18.53 4.44 18.67 4.7 18.76 4.97C18.85 5.27 18.85 5.62 18.84 6.3L18.83 6.72C18.83 6.79 18.83 6.82 18.83 6.85C18.83 7.17 18.92 7.48 19.07 7.77C19.08 7.79 19.1 7.82 19.13 7.88C19.16 7.93 19.18 7.96 19.2 7.99C19.36 8.26 19.59 8.49 19.87 8.65C19.89 8.67 19.92 8.68 19.98 8.71L20.34 8.92ZM8 12C8 9.79 9.79 8 12 8C14.2 8 16 9.79 16 12C16 14.2 14.2 16 12 16C9.79 16 8 14.2 8 12Z" stroke="#202224" stroke-opacity="1.000000" stroke-width="1.500000" stroke-linejoin="round"/>
	</g>
</svg>
